PathFileType	4	(X/Y/Z)	D:\TRACE\spot_10-12-23\spot_arm_body_motion_1_8-platform.trc
DataRate	CameraRate	NumFrames	NumMarkers	Units	OrigDataRate	OrigDataStartFrame	OrigNumFrames
100.00	100.00	      24	5	mm	100.00	2626	      7000
Frame#	Time	Left_Front			Right_Front			Left_Aft			Right_Aft			Post			
		X1	Y1	Z1	X2	Y2	Z2	X3	Y3	Z3	X4	Y4	Z4	X5	Y5	Z5	

2626	26.250	-774.29346	40.45749	-644.13507	793.19409	37.87543	-619.57837	-705.38300	-7.74606	493.44211	701.24414	-13.41238	595.64990	13.50253	781.29584	-922.68433	
2627	26.260	-773.18768	40.70264	-643.96283	794.25714	38.06189	-619.46674	-704.39026	-7.93930	493.41718	702.29755	-13.46410	595.77948	14.25266	781.79700	-922.49146	
2628	26.270	-772.29340	41.17190	-643.83795	795.17249	38.41296	-619.35101	-703.44513	-8.02921	493.56741	703.35016	-13.57327	595.88837	15.05440	782.07220	-922.34534	
2629	26.280	-771.36035	41.19756	-643.90039	795.96228	38.72366	-619.50140	-702.63629	-8.20749	493.74243	704.28680	-13.76012	595.78821	16.03976	782.14844	-922.01807	
2630	26.290	-770.46954	41.08421	-643.81714	797.07062	38.79478	-619.41962	-701.50201	-8.48016	493.69128	705.21155	-13.92522	595.79480	17.16469	782.43121	-921.69659	
2631	26.300	-769.38831	41.10376	-643.55786	798.08740	38.80065	-619.16687	-700.66089	-8.66650	493.75763	706.15430	-14.18824	595.86877	18.28754	782.75726	-921.45068	
2632	26.310	-768.45837	41.63520	-643.53485	798.97382	38.95263	-619.22583	-699.58630	-8.61840	493.76627	707.10291	-14.17076	595.90094	19.23716	782.78802	-921.29749	
2633	26.320	-767.67395	41.81128	-643.66400	799.76996	39.07589	-619.19489	-698.62592	-8.55124	493.83804	707.87225	-14.19359	595.42816	20.13027	782.96222	-921.08093	
2634	26.330	-766.58154	41.73978	-643.63727	800.89874	39.45134	-619.17236	-697.68628	-8.61128	493.82190	708.96759	-14.37495	595.86963	20.99311	783.18835	-920.82629	
2635	26.340	-765.67682	41.60605	-643.46613	801.74689	39.31822	-619.26044	-696.75995	-8.81443	493.83536	709.87897	-14.68467	595.79926	21.63223	783.22681	-920.65149	
2636	26.350	-764.60809	41.65971	-643.55945	802.75739	39.29060	-619.14581	-695.75934	-8.87326	493.86710	710.93787	-14.65271	595.85162	23.06264	783.29480	-920.36237	
2637	26.360	-763.83612	41.85149	-643.59784	803.80908	39.43889	-619.04474	-694.90814	-8.99396	493.85095	712.06482	-14.39011	596.59528	4.58835	715.95978	-935.81482	
2638	26.370	-762.89630	42.12957	-643.34601	804.62238	39.71072	-618.97015	-693.94336	-9.10584	493.94080	713.07904	-14.43159	596.61420	24.84405	783.66418	-920.61035	
2639	26.380	-761.86041	42.33328	-643.22430	805.68652	39.98197	-618.91711	-693.04199	-9.14979	494.02115	713.92017	-14.43605	596.63123	25.47790	783.95264	-920.58038	
2640	26.390	-760.98706	42.35429	-643.22803	806.52118	40.07538	-618.92853	-692.14984	-9.23289	493.97922	714.81519	-14.69242	596.58807	26.50471	784.08105	-920.49182	
2641	26.400	-760.21674	42.30460	-643.24347	807.28101	40.24094	-619.02795	-691.25806	-9.35005	494.02005	715.79736	-14.92349	596.63312	27.51690	784.19250	-920.06769	
2642	26.410	-759.08148	42.51906	-643.11133	808.25873	40.36161	-618.90314	-690.34460	-9.47168	494.06360	716.57916	-14.91210	596.73102	28.04210	784.22742	-920.07617	
2643	26.420	-758.07581	42.68513	-643.12610	809.24725	40.51282	-618.71765	-689.36896	-9.39554	494.07678	717.41058	-15.03751	596.70728	29.20375	784.58820	-919.92834	
2644	26.430	-757.29474	42.74022	-643.09338	810.08954	40.49361	-618.77094	-688.64807	-9.43329	494.22406	718.36047	-15.04025	596.55255	30.29513	784.74457	-919.75305	
2645	26.440	-756.63989	42.79662	-643.13043	811.07550	40.48196	-618.70557	-687.69464	-9.53811	494.17938	719.37207	-15.14958	596.48279	31.16260	784.80359	-919.50183	
2646	26.450	-755.68225	42.73980	-643.16779	811.84875	40.63827	-618.70618	-686.82324	-9.73944	494.24240	720.18097	-15.37399	596.61035	31.89665	784.85181	-919.13965	
2647	26.460	-754.61798	42.59391	-642.96948	812.77893	40.74192	-618.72827	-685.94800	-9.84555	494.24582	720.82300	-15.37853	596.67462	32.67233	784.92401	-918.83301	
2648	26.470	-753.81317	42.80487	-642.95453	813.52472	40.82180	-618.72540	-685.04578	-9.87330	494.20242	721.93140	-15.24694	596.74823	33.65718	785.14606	-918.46979	
2649	26.480	-753.09052	43.12411	-642.92957	814.14758	40.62070	-618.68958	-684.18268	-9.72979	494.25262	722.81775	-15.31826	596.78241	34.34621	785.30731	-918.50232	
